<svg xmlns="http://www.w3.org/2000/svg" viewBox="0 0 48 48" fill="none">
  <!-- body -->
  <rect x="7" y="22" width="34" height="18" rx="2.5" fill="#c0392b"/>
  <rect x="7" y="22" width="34" height="18" rx="2.5" fill="url(#g1)" fill-opacity="0.25"/>
  <!-- lid -->
  <path d="M7 24c0-7.2 5.8-13 13-13h8c7.2 0 13 5.8 13 13v2H7v-2z" fill="#e8a93b"/>
  <path d="M7 24c0-7.2 5.8-13 13-13h8c7.2 0 13 5.8 13 13v2H7v-2z" fill="url(#g2)" fill-opacity="0.35"/>
  <!-- gold trim band between lid and body -->
  <rect x="6" y="24.5" width="36" height="4" rx="1" fill="#f4cf6a"/>
  <rect x="6" y="24.5" width="36" height="4" rx="1" stroke="#b9821f" stroke-width="0.6"/>
  <!-- lock plate -->
  <rect x="20.5" y="26.5" width="7" height="9" rx="1.5" fill="#f4cf6a" stroke="#b9821f" stroke-width="0.8"/>
  <circle cx="24" cy="30" r="1.5" fill="#7a4f12"/>
  <rect x="23.3" y="30.5" width="1.4" height="3" rx="0.7" fill="#7a4f12"/>
  <!-- outline -->
  <rect x="7" y="22" width="34" height="18" rx="2.5" stroke="#7a2018" stroke-width="0.8"/>
  <defs>
    <linearGradient id="g1" x1="24" y1="22" x2="24" y2="40" gradientUnits="userSpaceOnUse"><stop stop-color="#fff"/><stop offset="1" stop-color="#fff" stop-opacity="0"/></linearGradient>
    <linearGradient id="g2" x1="24" y1="11" x2="24" y2="26" gradientUnits="userSpaceOnUse"><stop stop-color="#fff"/><stop offset="1" stop-color="#fff" stop-opacity="0"/></linearGradient>
  </defs>
</svg>
